<?xml version="1.0" ?><!DOCTYPE svg  PUBLIC '-//W3C//DTD SVG 1.1//EN'  'http://www.w3.org/Graphics/SVG/1.1/DTD/svg11.dtd'><svg enable-background="new 0 0 64 64" height="64px" id="Layer_1" version="1.1" viewBox="0 0 64 64" width="64px" xml:space="preserve" xmlns="http://www.w3.org/2000/svg" xmlns:xlink="http://www.w3.org/1999/xlink"><path d="M57.678,19.217l-0.592-1.374c-2.275-5.332-6.154-9.413-12.575-13.23c-0.001,0-0.002-0.001-0.003-0.002  c-0.006-0.003-0.011-0.006-0.017-0.01c-0.031-0.019-0.066-0.021-0.099-0.035c-0.055-0.023-0.107-0.049-0.166-0.058  c-0.054-0.009-0.106-0.001-0.16,0.002c-0.042,0.002-0.084-0.003-0.125,0.007c-0.067,0.016-0.128,0.048-0.189,0.082  c-0.023,0.013-0.05,0.016-0.072,0.031c-0.002,0.001-0.003,0.004-0.005,0.005c-0.042,0.03-0.073,0.074-0.108,0.113  c-0.033,0.036-0.072,0.067-0.097,0.107c-0.002,0.002-0.005,0.004-0.006,0.006c-0.017,0.028-0.019,0.06-0.031,0.089  C43.407,5.011,43.38,5.067,43.37,5.13c-0.007,0.047,0.001,0.093,0.002,0.14c0.002,0.049-0.003,0.098,0.009,0.146  c0.014,0.059,0.044,0.11,0.071,0.164c0.016,0.031,0.021,0.065,0.041,0.095c4.947,7.104,6.338,13.766,4.509,21.602  c-1.753,7.507-6.031,13.419-12.716,17.573c-6.941,4.313-14.409,8.063-22.01,6.286c-3.151-0.735-7.334-2.363-9.73-3.785  c-0.035-0.021-0.074-0.024-0.11-0.039c-0.051-0.02-0.099-0.045-0.153-0.054c-0.056-0.009-0.111-0.001-0.167,0.003  c-0.04,0.002-0.08-0.003-0.12,0.007c-0.062,0.014-0.118,0.045-0.174,0.075c-0.029,0.015-0.06,0.019-0.087,0.037  c-0.002,0.002-0.004,0.005-0.006,0.007c-0.04,0.028-0.069,0.071-0.104,0.108c-0.034,0.036-0.074,0.068-0.1,0.11  c-0.002,0.003-0.005,0.004-0.007,0.007c-0.019,0.032-0.021,0.068-0.036,0.102c-0.022,0.055-0.048,0.106-0.057,0.164  c-0.008,0.051,0,0.099,0.002,0.149c0.002,0.046-0.002,0.092,0.008,0.137c0.014,0.061,0.045,0.114,0.074,0.17  c0.015,0.029,0.02,0.062,0.039,0.09c0.003,0.004,0.006,0.008,0.009,0.012c0.002,0.003,0.004,0.006,0.006,0.009  c3.94,5.634,11.401,7.338,18.619,8.985l1.885,0.434c3.794,0.886,7.861,1.638,11.854,1.637c4.053,0,8.028-0.774,11.558-2.968  c7.397-4.597,12.89-11.95,14.692-19.67C62.621,30.648,59.995,24.575,57.678,19.217z M59.709,36.521  c-1.714,7.342-6.956,14.347-14.022,18.738c-6.544,4.065-14.933,2.859-22.28,1.144l-1.892-0.436  c-5.392-1.229-10.917-2.501-14.811-5.423c2.048,0.847,4.294,1.601,6.231,2.053c1.45,0.339,2.889,0.493,4.316,0.493  c6.576,0,12.897-3.282,18.826-6.967c7.035-4.371,11.539-10.598,13.386-18.506c1.684-7.21,0.792-13.471-2.901-19.905  c4.514,3.136,7.326,6.457,9.146,10.719l0.594,1.38C58.525,24.957,61.048,30.789,59.709,36.521z"/></svg>