<?xml version="1.0" ?><!DOCTYPE svg  PUBLIC '-//W3C//DTD SVG 1.1//EN'  'http://www.w3.org/Graphics/SVG/1.1/DTD/svg11.dtd'><svg enable-background="new 0 0 64 64" height="64px" id="Layer_1" version="1.1" viewBox="0 0 64 64" width="64px" xml:space="preserve" xmlns="http://www.w3.org/2000/svg" xmlns:xlink="http://www.w3.org/1999/xlink"><path d="M51.235,33.59c-0.261-0.794-0.597-1.561-0.979-2.306c3.12-2.332,5.194-6.964,5.194-11.703c0-7.02-5.85-12.313-13.606-12.313  c-7.424,0-12.411,4.948-12.411,12.313v0.191c-0.001,0.564,0.013,1.075,0.085,1.639c-6.61,1.854-10.863,8.76-12.678,14.979  C9.238,36.883,1.271,40.513,1.271,47.498c0,7.111,6.993,15.797,15.155,15.797c3.97,0,5.985-0.724,7.933-1.423  c1.912-0.687,3.717-1.335,7.427-1.335c3.882,0,5.855-0.221,7.764-0.435c1.868-0.209,3.799-0.425,7.597-0.425  c7.66,0,15.583-4.671,15.583-12.486C62.729,40.892,57.819,35.119,51.235,33.59z M30.933,19.774v-0.193  c0-6.468,4.385-10.813,10.911-10.813c6.901,0,12.106,4.649,12.106,10.813c0,4.211-1.778,8.28-4.454,10.372  c-3.393-5.353-9.815-9.036-16.478-9.036c-0.7,0-1.37,0.072-2.028,0.175C30.945,20.667,30.932,20.258,30.933,19.774z M47.146,58.178  c-3.882,0-5.854,0.221-7.763,0.435c-1.868,0.209-3.799,0.425-7.598,0.425c-3.971,0-5.986,0.724-7.934,1.423  c-1.912,0.687-3.717,1.335-7.426,1.335c-7.354,0-13.655-7.861-13.655-14.297c0-6.166,7.609-9.319,14.679-9.64  c0.326-0.015,0.604-0.238,0.69-0.553c2.015-7.411,7.397-14.889,14.879-14.889c7.604,0,14.876,5.17,16.913,12.027  c0.079,0.266,0.299,0.467,0.57,0.521c6.016,1.211,10.728,6.581,10.728,12.226C61.229,54.068,54.069,58.178,47.146,58.178z"/><path d="M41.737,5.765c0.414,0,0.75-0.336,0.75-0.75c0-0.851,0.042-1.265,0.087-1.703c0.047-0.457,0.096-0.928,0.096-1.857  c0-0.414-0.336-0.75-0.75-0.75s-0.75,0.336-0.75,0.75c0,0.852-0.042,1.266-0.088,1.704c-0.046,0.457-0.095,0.928-0.095,1.856  C40.987,5.429,41.323,5.765,41.737,5.765z"/><path d="M30.084,10.337c0.146,0.146,0.338,0.219,0.53,0.219s0.384-0.073,0.531-0.22c0.292-0.293,0.292-0.768,0-1.061l-2.517-2.515  c-0.293-0.293-0.768-0.292-1.061,0c-0.293,0.293-0.293,0.768,0,1.061L30.084,10.337z"/><path d="M57.621,21.516c0.868,0,1.302,0.025,1.735,0.05c0.456,0.027,0.912,0.053,1.823,0.053c0.414,0,0.75-0.336,0.75-0.75  s-0.336-0.75-0.75-0.75c-0.868,0-1.302-0.025-1.735-0.05c-0.456-0.027-0.912-0.053-1.823-0.053c-0.414,0-0.75,0.336-0.75,0.75  S57.207,21.516,57.621,21.516z"/><path d="M52.924,10.406c0.192,0,0.384-0.073,0.53-0.22c0.604-0.605,0.926-0.872,1.266-1.154c0.351-0.292,0.713-0.593,1.366-1.247  c0.293-0.293,0.293-0.768,0-1.061s-0.768-0.292-1.061,0C54.421,7.33,54.1,7.597,53.76,7.879c-0.351,0.292-0.713,0.593-1.366,1.247  c-0.293,0.293-0.293,0.768,0,1.061C52.54,10.333,52.732,10.406,52.924,10.406z"/></svg>