<?xml version="1.0" ?><!DOCTYPE svg  PUBLIC '-//W3C//DTD SVG 1.1//EN'  'http://www.w3.org/Graphics/SVG/1.1/DTD/svg11.dtd'><svg enable-background="new 0 0 64 64" height="64px" id="Layer_1" version="1.1" viewBox="0 0 64 64" width="64px" xml:space="preserve" xmlns="http://www.w3.org/2000/svg" xmlns:xlink="http://www.w3.org/1999/xlink"><path d="M49.282,35.599c-0.291-0.859-0.478-1.85-0.675-2.898c-0.281-1.5-0.573-3.05-1.214-4.529  c-0.536-1.237-1.387-2.353-2.209-3.433c-0.72-0.946-1.465-1.923-1.958-2.941c-0.513-1.059-0.86-2.254-1.196-3.409  c-0.366-1.257-0.744-2.557-1.34-3.705c-0.709-1.368-2.854-4.457-4.926-7.443c-1.614-2.325-3.139-4.521-3.591-5.351  c-0.263-0.481-1.054-0.481-1.316,0c-0.451,0.825-1.879,3.012-3.392,5.328c-2.011,3.078-4.09,6.261-4.804,7.637  c-0.601,1.159-0.906,2.489-1.201,3.776c-0.271,1.186-0.553,2.412-1.061,3.462c-0.619,1.276-1.02,2.635-1.407,3.95  c-0.327,1.106-0.635,2.151-1.058,3.127c-0.354,0.817-0.72,1.609-1.077,2.382c-0.714,1.546-1.388,3.007-1.882,4.462  c-0.862,2.538-0.811,4.66-0.769,6.365c0.008,0.332,0.016,0.649,0.016,0.952c0,0.845-0.173,1.738-0.34,2.603  c-0.302,1.56-0.615,3.173,0.017,4.696c0.691,1.667,2.062,2.773,3.387,3.843c0.596,0.48,1.16,0.936,1.658,1.434  c0.537,0.537,1.014,1.19,1.52,1.882c0.995,1.361,2.024,2.769,3.64,3.439c0.924,0.383,2,0.561,3.387,0.561  c0.673,0,1.361-0.039,2.05-0.08c0.662-0.039,1.324-0.078,1.976-0.078c0.855,0,1.805,0.204,2.811,0.42  c1.04,0.223,2.115,0.454,3.133,0.454c0.707,0,1.315-0.11,1.859-0.336c1.589-0.659,2.62-2.197,3.617-3.685  c0.54-0.806,1.05-1.565,1.607-2.124c1.462-1.461,2.184-3.298,2.881-5.074c0.152-0.387,0.306-0.777,0.469-1.169  c0.257-0.62,0.584-1.228,0.932-1.871c0.809-1.499,1.645-3.049,1.645-4.914C50.469,40.518,50.069,37.917,49.282,35.599z   M47.504,47.532c-0.35,0.647-0.712,1.318-0.997,2.009c-0.166,0.399-0.323,0.799-0.479,1.194c-0.672,1.709-1.306,3.322-2.546,4.563  c-0.662,0.662-1.236,1.52-1.793,2.35c-0.873,1.302-1.775,2.648-2.945,3.134c-0.966,0.403-2.501,0.144-4.104-0.199  c-1.037-0.223-2.11-0.453-3.125-0.453c-0.68,0-1.373,0.04-2.063,0.081c-0.66,0.038-1.318,0.077-1.962,0.077  c-1.183,0-2.076-0.142-2.812-0.446c-1.228-0.51-2.09-1.689-3.004-2.938c-0.517-0.707-1.052-1.438-1.67-2.058  c-0.555-0.555-1.176-1.056-1.777-1.541c-1.233-0.995-2.398-1.935-2.943-3.249c-0.458-1.106-0.202-2.433,0.07-3.837  c0.181-0.934,0.368-1.899,0.368-2.888c0-0.313-0.008-0.644-0.016-0.989c-0.041-1.669-0.086-3.561,0.69-5.846  c0.468-1.381,1.126-2.807,1.823-4.316c0.361-0.784,0.732-1.586,1.091-2.415c0.459-1.061,0.796-2.199,1.121-3.299  c0.371-1.256,0.754-2.555,1.319-3.72c0.582-1.203,0.883-2.513,1.173-3.78c0.287-1.25,0.558-2.431,1.07-3.421  c0.679-1.309,2.831-4.602,4.729-7.507c1.121-1.716,2.134-3.267,2.804-4.342c0.709,1.09,1.8,2.661,3.007,4.4  c1.95,2.811,4.161,5.997,4.826,7.278c0.528,1.019,0.87,2.192,1.231,3.434c0.354,1.215,0.719,2.472,1.287,3.644  c0.559,1.153,1.35,2.191,2.114,3.196c0.804,1.055,1.563,2.052,2.025,3.121c0.575,1.325,0.851,2.791,1.117,4.209  c0.207,1.103,0.402,2.145,0.729,3.104c0.734,2.162,1.106,4.602,1.106,7.249C48.969,44.816,48.257,46.136,47.504,47.532z"/><path d="M30.017,51.826c-1.756-0.426-3.008-1.061-4.322-2.193c-0.26-0.225-0.524-0.441-0.787-0.657  c-1.115-0.917-2.167-1.783-2.675-3.026c-0.156-0.384-0.593-0.568-0.978-0.411c-0.383,0.156-0.568,0.594-0.411,0.978  c0.65,1.595,1.901,2.624,3.111,3.618c0.254,0.209,0.509,0.419,0.761,0.636c1.489,1.283,2.969,2.035,4.948,2.514  c0.059,0.015,0.119,0.021,0.177,0.021c0.338,0,0.646-0.23,0.729-0.573C30.667,52.328,30.42,51.923,30.017,51.826z"/></svg>