<?xml version="1.0" ?><!DOCTYPE svg  PUBLIC '-//W3C//DTD SVG 1.1//EN'  'http://www.w3.org/Graphics/SVG/1.1/DTD/svg11.dtd'><svg enable-background="new 0 0 64 64" height="64px" id="Layer_1" version="1.1" viewBox="0 0 64 64" width="64px" xml:space="preserve" xmlns="http://www.w3.org/2000/svg" xmlns:xlink="http://www.w3.org/1999/xlink"><path d="M51.762,17.48c-2.297-6.912-9.829-11.524-18.911-11.524c-8.231,0-15.489,5.355-17.841,13.089  C7.566,19.609,2.605,24.738,2.605,31.954c0,7.509,9.365,10.929,18.065,10.929c0.414,0,0.75-0.336,0.75-0.75s-0.336-0.75-0.75-0.75  c-6.659,0-16.565-2.511-16.565-9.429c0-6.634,4.519-11.126,11.513-11.443c0.325-0.015,0.604-0.238,0.689-0.552  c2.001-7.361,8.804-12.502,16.543-12.502c8.599,0,15.674,4.372,17.607,10.877c0.079,0.267,0.299,0.467,0.57,0.522  c5.975,1.203,10.312,6.579,10.312,12.783c0,6.562-5.992,11.509-13.938,11.509c-0.414,0-0.75,0.336-0.75,0.75s0.336,0.75,0.75,0.75  c8.801,0,15.438-5.593,15.438-13.009C62.84,24.875,58.207,18.992,51.762,17.48z"/><path d="M28.34,50.441c-4.795,0-7.233,0.296-9.59,0.582c-2.313,0.28-4.705,0.57-9.41,0.57c-0.414,0-0.75,0.336-0.75,0.75  s0.336,0.75,0.75,0.75c4.795,0,7.233-0.296,9.59-0.582c2.313-0.28,4.705-0.57,9.41-0.57c4.148,0,6.936-2.85,6.936-7.091  c0-4.47-2.981-7.841-6.936-7.841c-0.414,0-0.75,0.336-0.75,0.75s0.336,0.75,0.75,0.75c3.531,0,5.436,3.267,5.436,6.341  C33.775,48.247,31.642,50.441,28.34,50.441z"/><path d="M30.104,33.523c-0.414,0-0.75,0.336-0.75,0.75s0.336,0.75,0.75,0.75c5.127,0,8.571,3.948,8.571,9.825  c0,5.634-3.206,11.461-8.571,11.461c-3.438,0-5.108-0.391-6.877-0.804c-1.774-0.415-3.609-0.844-7.22-0.844  c-3.623,0-5.463,0.491-7.242,0.967C7.001,56.1,5.335,56.544,1.91,56.544c-0.414,0-0.75,0.336-0.75,0.75s0.336,0.75,0.75,0.75  c3.622,0,5.462-0.491,7.241-0.966c1.764-0.472,3.429-0.916,6.855-0.916c3.438,0,5.109,0.391,6.878,0.804  c1.773,0.415,3.608,0.844,7.218,0.844c6.304,0,10.071-6.59,10.071-12.961C40.175,38.181,36.033,33.523,30.104,33.523z"/></svg>