<?xml version="1.0" ?><!DOCTYPE svg  PUBLIC '-//W3C//DTD SVG 1.1//EN'  'http://www.w3.org/Graphics/SVG/1.1/DTD/svg11.dtd'><svg enable-background="new 0 0 64 64" height="64px" id="Layer_1" version="1.1" viewBox="0 0 64 64" width="64px" xml:space="preserve" xmlns="http://www.w3.org/2000/svg" xmlns:xlink="http://www.w3.org/1999/xlink"><path d="M42.167,37.771c-0.417-0.264-0.81-0.521-1.187-0.789l0.008-6.854c0-1.591,0.068-2.364,0.141-3.182  c0.072-0.814,0.146-1.657,0.146-3.313c0-1.473,0.286-2.161,0.617-2.958c0.34-0.816,0.722-1.742,0.73-3.474  c0-0.003,0.002-0.005,0.002-0.008c0-0.002-0.001-0.004-0.001-0.006c0-0.016,0.001-0.03,0.001-0.046c0-1.808-0.502-2.757-0.944-3.594  c-0.413-0.782-0.771-1.457-0.771-2.892l0.003-0.664c0.017-2.178,0.035-4.646-1.55-6.231c-1.712-1.711-4.446-1.942-6.896-1.942  c-0.101,0-0.197,0.024-0.285,0.066c-2.831,0.044-4.898,0.756-6.313,2.172c-1.466,1.466-1.4,3.458-1.337,5.386  c0.013,0.4,0.026,0.806,0.026,1.213c0,1.64,0.034,2.473,0.067,3.279c0.033,0.791,0.066,1.609,0.066,3.217  c0,1.583-0.083,2.352-0.172,3.167c-0.089,0.818-0.181,1.665-0.181,3.329c0,1.634,0.023,2.451,0.047,3.268  c0.023,0.806,0.046,1.612,0.046,3.224c0,1.384-0.312,1.83-0.708,2.394c-0.428,0.61-0.903,1.309-0.966,2.904  c-1.422,1.229-2.338,3.106-3.146,4.783l-0.381,0.784c-0.841,1.694-0.808,3.613-0.775,5.469c0.006,0.361,0.013,0.725,0.013,1.088  c0,0.497-0.016,1.001-0.032,1.505c-0.066,2.101-0.134,4.273,0.907,6.074c1.179,2.037,3.232,4.003,5.633,5.395  c1.89,1.093,4.41,1.647,7.491,1.647c2.606,0,5.14-0.668,7.326-1.933c2.278-1.32,4.207-3.211,5.43-5.324  c1.349-2.331,2.092-4.946,2.092-7.364c0-2.628-0.904-5.002-1.663-6.53C44.89,39.491,43.505,38.617,42.167,37.771z M43.925,54.173  c-1.094,1.891-2.827,3.587-4.883,4.777c-1.957,1.133-4.23,1.731-6.574,1.731c-2.813,0-5.081-0.486-6.739-1.446  c-2.181-1.263-4.035-3.029-5.086-4.847c-0.827-1.431-0.769-3.299-0.707-5.276c0.017-0.52,0.033-1.039,0.033-1.552  c0-0.372-0.006-0.744-0.013-1.114c-0.031-1.753-0.06-3.408,0.619-4.775l0.389-0.8c0.788-1.636,1.682-3.489,2.987-4.485  c0.014-0.011,0.021-0.026,0.033-0.038c0.039-0.034,0.068-0.073,0.1-0.114c0.029-0.037,0.058-0.073,0.078-0.115  c0.021-0.041,0.031-0.085,0.044-0.13c0.014-0.051,0.027-0.099,0.03-0.151c0.001-0.017,0.01-0.031,0.01-0.048  c0-1.386,0.313-1.831,0.708-2.396c0.146-0.209,0.298-0.432,0.438-0.692c0.467,0.017,0.646,0.059,0.83,0.104  c0.372,0.091,0.708,0.155,1.662,0.155c0.414,0,0.75-0.336,0.75-0.75s-0.336-0.75-0.75-0.75c-0.847,0-1.07-0.055-1.307-0.112  c-0.21-0.051-0.414-0.093-0.72-0.121c0.046-0.316,0.075-0.67,0.075-1.088c0-0.933-0.008-1.595-0.019-2.147  c0.251,0.013,0.364,0.032,0.471,0.05c0.29,0.051,0.568,0.087,1.499,0.087c0.414,0,0.75-0.336,0.75-0.75s-0.336-0.75-0.75-0.75  c-0.872,0-1.059-0.033-1.24-0.064c-0.194-0.034-0.387-0.061-0.769-0.076c-0.019-0.697-0.035-1.482-0.035-2.842  c0-0.209,0.001-0.403,0.004-0.586c0.426-0.011,0.601-0.033,0.766-0.054c0.189-0.024,0.384-0.049,1.273-0.049  c0.414,0,0.75-0.336,0.75-0.75s-0.336-0.75-0.75-0.75c-0.986,0-1.229,0.031-1.465,0.062c-0.115,0.015-0.235,0.03-0.51,0.039  c0.029-0.394,0.065-0.734,0.103-1.079c0.074-0.683,0.15-1.393,0.173-2.575c0.255,0.003,0.339,0.009,0.422,0.016  c0.148,0.011,0.296,0.023,1.277,0.023c0.414,0,0.75-0.336,0.75-0.75s-0.336-0.75-0.75-0.75c-0.894,0-1.029-0.009-1.164-0.02  c-0.097-0.007-0.199-0.015-0.53-0.02c-0.009-1.163-0.037-1.861-0.064-2.533c-0.033-0.791-0.066-1.609-0.066-3.217  c0-0.423-0.014-0.846-0.027-1.262c-0.058-1.755-0.107-3.271,0.898-4.276c1.167-1.167,2.979-1.735,5.538-1.735  c0.099,0,0.192-0.022,0.278-0.063c2.066,0.017,4.289,0.235,5.557,1.502c1.141,1.141,1.126,3.184,1.11,5.159l-0.003,0.675  c0,1.807,0.502,2.756,0.944,3.593c0.339,0.642,0.638,1.219,0.734,2.197c-0.455,0.002-0.782,0.005-1.097,0.008  c-0.467,0.005-0.934,0.01-1.867,0.01c-0.414,0-0.75,0.336-0.75,0.75s0.336,0.75,0.75,0.75c0.941,0,1.412-0.005,1.883-0.01  c0.311-0.003,0.634-0.007,1.081-0.009c-0.085,0.948-0.317,1.52-0.581,2.154c-0.154,0.371-0.316,0.768-0.449,1.249  c-0.504,0.019-0.695,0.066-0.895,0.129c-0.092,0.029-0.217,0.068-1.039,0.068c-0.414,0-0.75,0.336-0.75,0.75s0.336,0.75,0.75,0.75  c0.979,0,1.227-0.055,1.49-0.138c0.039-0.012,0.088-0.026,0.189-0.039c-0.018,0.238-0.029,0.488-0.029,0.765  c0,1.297-0.046,2.048-0.102,2.726h-1.549c-0.414,0-0.75,0.336-0.75,0.75s0.336,0.75,0.75,0.75h1.427  c-0.036,0.578-0.063,1.276-0.063,2.27l-0.002,1.442c-0.047,0-0.109,0-0.148-0.001c-0.265-0.132-0.665-0.132-1.213-0.132  c-0.414,0-0.75,0.336-0.75,0.75s0.336,0.75,0.75,0.75c0.156,0,0.281,0.001,0.38,0.002c0.222,0.11,0.562,0.123,0.979,0.127  l-0.005,4.305c0,0.017,0.009,0.031,0.01,0.048c0.003,0.053,0.017,0.101,0.03,0.151c0.013,0.045,0.023,0.089,0.044,0.13  c0.021,0.042,0.05,0.077,0.078,0.115c0.031,0.041,0.061,0.08,0.1,0.114c0.013,0.012,0.02,0.027,0.033,0.038  c0.514,0.392,1.062,0.737,1.592,1.072c1.217,0.769,2.366,1.495,2.942,2.656c0.688,1.386,1.507,3.527,1.507,5.864  C45.815,49.719,45.145,52.066,43.925,54.173z"/><path d="M33.173,41.26c-0.002-1.783-0.014-2.749-0.026-3.703c-0.013-1.019-0.025-2.037-0.025-4.074c0-0.414-0.336-0.75-0.75-0.75  s-0.75,0.336-0.75,0.75c0,2.047,0.013,3.07,0.026,4.094c0.012,0.951,0.024,1.914,0.025,3.695c-3.531,0.354-6.286,3.041-6.286,6.295  c0,3.607,3.375,6.893,7.081,6.893c3.73,0,7.127-3.285,7.127-6.893C39.595,44.283,36.772,41.576,33.173,41.26z M32.468,52.959  c-2.921,0-5.581-2.57-5.581-5.393c0-2.988,2.897-4.838,5.581-4.838c2.706,0,5.627,1.85,5.627,4.838  C38.095,50.338,35.36,52.959,32.468,52.959z"/><path d="M17.265,11.324c0.344-0.231,0.435-0.697,0.204-1.041c-0.231-0.344-0.698-0.436-1.041-0.204  c-1.071,0.721-1.62,1.065-2.167,1.409c-0.332,0.208-0.677,0.427-1.12,0.715c0.041-0.451,0.096-0.81,0.153-1.177  c0.115-0.73,0.233-1.485,0.233-2.97c0-0.414-0.336-0.75-0.75-0.75s-0.75,0.336-0.75,0.75c0,1.369-0.104,2.034-0.214,2.738  c-0.065,0.413-0.13,0.838-0.175,1.395c-0.346-0.189-0.641-0.333-0.927-0.472c-0.586-0.284-1.14-0.551-2.18-1.251  c-0.342-0.23-0.81-0.14-1.041,0.203c-0.231,0.344-0.141,0.81,0.203,1.041c1.128,0.76,1.757,1.063,2.365,1.357  c0.326,0.158,0.651,0.319,1.046,0.543c-0.527,0.413-0.868,0.744-1.195,1.066c-0.462,0.454-0.898,0.882-1.925,1.573  c-0.344,0.231-0.435,0.697-0.204,1.041c0.145,0.215,0.381,0.332,0.623,0.332c0.144,0,0.29-0.042,0.418-0.128  c1.142-0.768,1.648-1.266,2.139-1.748c0.192-0.189,0.389-0.377,0.617-0.578c-0.003,0.583-0.008,1.013-0.013,1.441  c-0.008,0.716-0.017,1.432-0.017,2.863c0,0.414,0.336,0.75,0.75,0.75s0.75-0.336,0.75-0.75c0-1.422,0.008-2.134,0.017-2.845  c0.006-0.492,0.011-0.99,0.014-1.714c0.491,0.367,0.823,0.654,1.152,0.944c0.504,0.445,1.025,0.905,2.15,1.662  c0.128,0.086,0.274,0.128,0.418,0.128c0.241,0,0.478-0.116,0.623-0.332c0.231-0.343,0.14-0.81-0.204-1.041  c-1.043-0.702-1.505-1.11-1.995-1.542c-0.382-0.337-0.776-0.684-1.433-1.161c0.523-0.343,0.903-0.584,1.27-0.814  C15.617,12.409,16.175,12.058,17.265,11.324z"/><path d="M14.199,26.764c0.343-0.231,0.435-0.697,0.203-1.041c-0.231-0.343-0.698-0.434-1.041-0.203  c-1.07,0.72-1.62,1.06-2.169,1.399c-0.385,0.237-0.782,0.484-1.336,0.846c0.016-0.7,0.044-1.18,0.074-1.674  c0.044-0.713,0.089-1.45,0.089-2.9c0-0.414-0.336-0.75-0.75-0.75s-0.75,0.336-0.75,0.75c0,1.404-0.042,2.086-0.086,2.809  c-0.023,0.382-0.047,0.776-0.064,1.279c-0.334-0.184-0.623-0.326-0.902-0.462C6.88,26.53,6.327,26.26,5.286,25.56  c-0.342-0.23-0.81-0.14-1.041,0.203c-0.231,0.344-0.141,0.81,0.203,1.041c1.127,0.759,1.754,1.064,2.361,1.359  c0.406,0.198,0.807,0.397,1.354,0.729l-1.346,0.902c-0.549,0.367-1.093,0.729-2.189,1.467c-0.344,0.231-0.435,0.697-0.203,1.041  c0.145,0.215,0.381,0.332,0.623,0.332c0.144,0,0.29-0.042,0.418-0.128c1.093-0.736,1.636-1.099,2.184-1.464l0.68-0.456  c-0.008,0.439-0.019,0.792-0.029,1.144c-0.022,0.719-0.043,1.439-0.043,2.877c0,0.414,0.336,0.75,0.75,0.75s0.75-0.336,0.75-0.75  c0-1.416,0.021-2.125,0.042-2.833c0.015-0.502,0.03-1.01,0.038-1.756c0.492,0.364,0.827,0.646,1.16,0.933  c0.507,0.436,1.031,0.887,2.151,1.641c0.128,0.087,0.274,0.128,0.418,0.128c0.241,0,0.478-0.116,0.623-0.331  c0.231-0.344,0.14-0.81-0.203-1.041c-1.047-0.705-1.516-1.107-2.012-1.534c-0.315-0.271-0.655-0.557-1.123-0.909  c0.447-0.29,0.794-0.505,1.126-0.71C12.542,27.848,13.104,27.5,14.199,26.764z"/><path d="M50.187,16.658c0.037,0.724,0.072,1.408,0.072,2.815c0,0.414,0.336,0.75,0.75,0.75s0.75-0.336,0.75-0.75  c0-1.446-0.038-2.182-0.074-2.893c-0.016-0.296-0.03-0.588-0.042-0.924c0.231,0.127,0.449,0.242,0.656,0.348  c0.582,0.299,1.131,0.582,2.179,1.287c0.129,0.086,0.274,0.128,0.418,0.128c0.241,0,0.479-0.116,0.623-0.331  c0.231-0.344,0.141-0.81-0.203-1.041c-1.121-0.755-1.735-1.071-2.33-1.376c-0.397-0.204-0.791-0.41-1.327-0.739  c0.669-0.469,1.083-0.792,1.48-1.104c0.519-0.407,1.008-0.791,2.068-1.505c0.344-0.231,0.435-0.697,0.203-1.041  c-0.23-0.342-0.695-0.435-1.041-0.203c-1.105,0.744-1.64,1.164-2.156,1.569c-0.185,0.145-0.374,0.292-0.578,0.446  c0.014-0.434,0.031-0.785,0.05-1.145c0.036-0.711,0.073-1.446,0.073-2.892c0-0.414-0.336-0.75-0.75-0.75s-0.75,0.336-0.75,0.75  c0,1.408-0.035,2.092-0.072,2.816c-0.028,0.556-0.057,1.13-0.068,2.043c-0.632-0.435-1.029-0.723-1.425-1.009  c-0.536-0.388-1.07-0.776-2.168-1.514c-0.346-0.231-0.81-0.141-1.041,0.204c-0.231,0.343-0.141,0.81,0.203,1.041  c1.076,0.724,1.601,1.104,2.125,1.484c0.342,0.248,0.699,0.505,1.188,0.845c-0.409,0.309-0.72,0.566-1.011,0.811  c-0.502,0.421-0.976,0.819-2.026,1.526c-0.344,0.231-0.435,0.697-0.203,1.041c0.145,0.215,0.382,0.331,0.623,0.331  c0.144,0,0.289-0.042,0.418-0.128c1.116-0.751,1.644-1.194,2.152-1.622c0.337-0.283,0.677-0.563,1.172-0.926  C50.138,15.695,50.162,16.185,50.187,16.658z"/><path d="M57.528,32.737c-0.36-0.313-0.738-0.639-1.325-1.07c0.49-0.333,0.854-0.581,1.2-0.819c0.535-0.367,1.072-0.735,2.148-1.459  c0.344-0.231,0.435-0.697,0.203-1.041c-0.23-0.342-0.695-0.435-1.041-0.203c-1.081,0.728-1.621,1.098-2.158,1.466  c-0.2,0.137-0.41,0.281-0.638,0.436c-0.068-0.491-0.161-0.88-0.253-1.261c-0.166-0.689-0.322-1.34-0.322-2.679  c0-0.414-0.336-0.75-0.75-0.75s-0.75,0.336-0.75,0.75c0,1.516,0.185,2.285,0.363,3.029c0.1,0.413,0.194,0.815,0.256,1.356  c-0.567-0.354-0.983-0.586-1.378-0.802c-0.575-0.316-1.119-0.614-2.174-1.324c-0.346-0.232-0.811-0.14-1.041,0.204  c-0.231,0.343-0.141,0.81,0.203,1.041c1.111,0.748,1.711,1.077,2.291,1.395c0.348,0.191,0.698,0.387,1.143,0.659  c-0.523,0.338-0.904,0.568-1.287,0.797c-0.56,0.335-1.139,0.682-2.238,1.422c-0.344,0.231-0.435,0.697-0.203,1.041  c0.145,0.215,0.382,0.331,0.623,0.331c0.144,0,0.289-0.041,0.418-0.128c1.066-0.718,1.603-1.039,2.171-1.379  c0.422-0.253,0.855-0.513,1.514-0.941c-0.041,0.739-0.126,1.228-0.215,1.732c-0.129,0.733-0.263,1.491-0.263,2.983  c0,0.414,0.336,0.75,0.75,0.75s0.75-0.336,0.75-0.75c0-1.361,0.116-2.022,0.24-2.724c0.074-0.42,0.148-0.852,0.199-1.42  c0.207,0.169,0.396,0.33,0.579,0.489c0.505,0.439,1.028,0.895,2.149,1.649c0.129,0.087,0.274,0.128,0.418,0.128  c0.241,0,0.479-0.116,0.623-0.331c0.231-0.344,0.141-0.81-0.203-1.041C58.486,33.571,58.021,33.166,57.528,32.737z"/></svg>