<?xml version="1.0" ?><!DOCTYPE svg  PUBLIC '-//W3C//DTD SVG 1.1//EN'  'http://www.w3.org/Graphics/SVG/1.1/DTD/svg11.dtd'><svg enable-background="new 0 0 64 64" height="64px" id="Layer_1" version="1.1" viewBox="0 0 64 64" width="64px" xml:space="preserve" xmlns="http://www.w3.org/2000/svg" xmlns:xlink="http://www.w3.org/1999/xlink"><path d="M13.369,44.049c2.526,0,3.808-0.381,5.047-0.749c1.189-0.353,2.313-0.687,4.62-0.687c2.265,0,3.371,0.468,4.542,0.962  c1.257,0.531,2.557,1.081,5.126,1.081c2.551,0,3.844-0.485,5.094-0.955c1.177-0.442,2.287-0.859,4.566-0.859  c2.723,0,5.812-0.184,8.002-2.374c2.195-2.195,3.455-5.112,3.455-8.003c0-3.476-1.972-6.177-3.626-7.831  c-2.077-2.078-4.785-3.177-7.831-3.177c-0.414,0-0.75,0.336-0.75,0.75s0.336,0.75,0.75,0.75c2.64,0,4.98,0.946,6.771,2.737  c1.454,1.454,3.187,3.809,3.187,6.771c0,2.495-1.1,5.025-3.016,6.942c-1.605,1.605-3.937,1.935-6.941,1.935  c-2.551,0-3.844,0.485-5.094,0.955c-1.177,0.442-2.287,0.859-4.566,0.859c-2.265,0-3.371-0.468-4.542-0.962  c-1.257-0.531-2.557-1.081-5.126-1.081c-2.525,0-3.807,0.381-5.046,0.749c-1.189,0.353-2.313,0.687-4.621,0.687  c-0.414,0-0.75,0.336-0.75,0.75S12.955,44.049,13.369,44.049z"/><path d="M60.392,23.301c-0.983-2.003-3.038-2.943-5.025-3.852c-0.932-0.426-1.813-0.829-2.531-1.32  c-0.709-0.485-1.4-1.15-2.133-1.854c-1.646-1.581-3.347-3.216-5.646-3.216c-0.414,0-0.75,0.336-0.75,0.75s0.336,0.75,0.75,0.75  c1.696,0,3.11,1.359,4.606,2.797c0.745,0.715,1.515,1.455,2.327,2.01c0.824,0.564,1.805,1.012,2.754,1.446  c1.828,0.836,3.555,1.626,4.303,3.149c1.361,2.773,2.174,5.95,2.174,8.499c0,2.237-1.213,4.536-2.283,6.563  c-0.272,0.517-0.537,1.019-0.774,1.503c-1.124,2.29-2.969,4.323-5.483,6.042c-2.862,1.959-5.285,2.871-7.623,2.871  c-2.673,0-4.031-0.058-5.346-0.112c-1.329-0.057-2.704-0.114-5.409-0.114c-2.565,0-3.814-0.421-5.137-0.866  c-1.378-0.465-2.804-0.945-5.615-0.945c-2.775,0-4.185,0.323-5.548,0.637c-1.34,0.308-2.606,0.599-5.211,0.599  c-2.594,0-3.856-0.327-5.192-0.673c-1.368-0.355-2.782-0.722-5.568-0.722c-0.414,0-0.75,0.336-0.75,0.75s0.336,0.75,0.75,0.75  c2.594,0,3.856,0.327,5.192,0.673c1.368,0.355,2.782,0.722,5.568,0.722c2.774,0,4.184-0.323,5.547-0.637  c1.34-0.308,2.607-0.599,5.212-0.599c2.565,0,3.814,0.421,5.137,0.866c1.378,0.465,2.804,0.945,5.615,0.945  c2.673,0,4.032,0.058,5.347,0.112c1.329,0.057,2.704,0.114,5.408,0.114c2.654,0,5.346-0.995,8.47-3.133  c2.731-1.867,4.744-4.095,5.983-6.62c0.23-0.472,0.489-0.96,0.754-1.463c1.152-2.182,2.457-4.654,2.457-7.264  C62.72,29.695,61.85,26.271,60.392,23.301z"/></svg>