<?xml version="1.0" ?><!DOCTYPE svg  PUBLIC '-//W3C//DTD SVG 1.1//EN'  'http://www.w3.org/Graphics/SVG/1.1/DTD/svg11.dtd'><svg enable-background="new 0 0 64 64" height="64px" id="Layer_1" version="1.1" viewBox="0 0 64 64" width="64px" xml:space="preserve" xmlns="http://www.w3.org/2000/svg" xmlns:xlink="http://www.w3.org/1999/xlink"><path d="M48.616,19.481c-2.342-7.38-8.677-15.152-17.321-15.152c-8.438,0-15.058,7.791-17.387,15.656  c-7.733,0.55-12.512,5.239-12.512,12.341c0,7.467,4.399,15.026,12.808,15.026c0.414,0,0.75-0.336,0.75-0.75s-0.336-0.75-0.75-0.75  c-7.423,0-11.308-6.805-11.308-13.526c0-6.382,4.453-10.548,11.622-10.874c0.325-0.015,0.604-0.238,0.689-0.552  c2.036-7.489,8.216-15.071,16.087-15.071c8.043,0,13.94,7.521,16.015,14.508c0.079,0.266,0.299,0.467,0.57,0.522  c6.368,1.282,13.223,5.319,13.223,11.151c0,6.623-7.271,12.654-15.256,12.654c-0.414,0-0.75,0.336-0.75,0.75s0.336,0.75,0.75,0.75  c8.77,0,16.756-6.746,16.756-14.154C62.604,25.475,55.437,20.98,48.616,19.481z"/><path d="M27.033,38.103c0.283,0,0.554-0.161,0.681-0.435c0.14-0.3,0.262-0.617,0.387-0.944c0.115-0.3,0.232-0.607,0.373-0.915  c0.172-0.376,0.006-0.821-0.37-0.993c-0.376-0.175-0.822-0.008-0.994,0.37c-0.154,0.336-0.284,0.673-0.409,1.001  c-0.113,0.294-0.222,0.58-0.347,0.851c-0.174,0.375-0.011,0.821,0.364,0.996C26.82,38.08,26.927,38.103,27.033,38.103z"/><path d="M21.244,48.335c-0.378-0.169-0.822-0.002-0.992,0.375c-0.199,0.44-0.409,0.892-0.642,1.356  c-0.346,0.688-0.549,1.457-0.766,2.271l-0.162,0.601c-0.111,0.399,0.123,0.813,0.522,0.923c0.067,0.019,0.134,0.027,0.201,0.027  c0.329,0,0.63-0.218,0.722-0.55l0.166-0.616c0.204-0.769,0.38-1.433,0.657-1.983c0.243-0.484,0.461-0.953,0.668-1.411  C21.79,48.949,21.622,48.505,21.244,48.335z"/><path d="M25.676,40.762c-0.372-0.179-0.822-0.025-1.002,0.348c-0.449,0.926-1.034,1.67-1.599,2.389  c-0.304,0.387-0.596,0.759-0.851,1.135c-0.232,0.343-0.143,0.81,0.2,1.042c0.129,0.087,0.275,0.129,0.42,0.129  c0.24,0,0.476-0.115,0.621-0.329c0.236-0.348,0.507-0.691,0.789-1.049c0.586-0.746,1.25-1.591,1.77-2.662  C26.204,41.391,26.048,40.942,25.676,40.762z"/><path d="M17.579,56.422c-0.378-0.173-0.822-0.01-0.996,0.365c-0.267,0.574-0.546,1.18-0.84,1.822  c-0.172,0.376-0.006,0.821,0.37,0.993c0.101,0.047,0.207,0.068,0.312,0.068c0.285,0,0.557-0.162,0.683-0.438  c0.292-0.639,0.57-1.242,0.836-1.814C18.117,57.043,17.954,56.597,17.579,56.422z"/><path d="M34.919,38.126c0.282,0,0.553-0.16,0.68-0.433c0.114-0.244,0.234-0.493,0.357-0.747c0.166-0.344,0.338-0.698,0.506-1.067  c0.173-0.376,0.007-0.821-0.37-0.993c-0.373-0.174-0.821-0.008-0.993,0.37c-0.165,0.358-0.331,0.703-0.493,1.037  c-0.126,0.261-0.249,0.516-0.366,0.766c-0.175,0.376-0.013,0.822,0.362,0.997C34.704,38.104,34.813,38.126,34.919,38.126z"/><path d="M29.459,48.592c-0.356-0.214-0.816-0.099-1.029,0.259c-0.251,0.422-0.503,0.859-0.751,1.327  c-0.247,0.465-0.521,0.942-0.811,1.449c-0.199,0.346-0.405,0.706-0.616,1.084c-0.202,0.362-0.072,0.818,0.29,1.021  c0.116,0.064,0.241,0.095,0.365,0.095c0.263,0,0.519-0.139,0.656-0.385c0.208-0.373,0.411-0.728,0.606-1.068  c0.299-0.522,0.581-1.014,0.835-1.492c0.236-0.444,0.475-0.86,0.714-1.261C29.931,49.265,29.814,48.804,29.459,48.592z"/><path d="M31.983,45.801c0.713-1.316,1.364-2.566,2.05-3.934c0.186-0.37,0.035-0.82-0.335-1.007c-0.37-0.185-0.821-0.034-1.007,0.335  c-0.678,1.353-1.322,2.589-2.027,3.891c-0.197,0.364-0.062,0.819,0.302,1.017c0.114,0.062,0.236,0.091,0.357,0.091  C31.589,46.193,31.848,46.051,31.983,45.801z"/><path d="M25.172,56.313c-0.376-0.179-0.822-0.016-0.998,0.36c-0.12,0.256-0.254,0.512-0.392,0.774  c-0.172,0.328-0.348,0.667-0.511,1.023c-0.172,0.376-0.006,0.821,0.37,0.993c0.101,0.047,0.207,0.068,0.312,0.068  c0.285,0,0.557-0.162,0.683-0.438c0.151-0.331,0.316-0.646,0.476-0.951c0.148-0.282,0.292-0.559,0.421-0.833  C25.709,56.935,25.547,56.487,25.172,56.313z"/><path d="M44.19,35.008c-0.374-0.174-0.821-0.008-0.993,0.37c-0.292,0.638-0.57,1.238-0.839,1.809  c-0.177,0.374-0.016,0.821,0.359,0.998c0.104,0.049,0.212,0.071,0.318,0.071c0.282,0,0.552-0.159,0.68-0.431  c0.271-0.574,0.551-1.181,0.845-1.824C44.733,35.625,44.567,35.18,44.19,35.008z"/><path d="M41.826,41.003c-0.368-0.189-0.82-0.041-1.009,0.326c-0.526,1.03-1.097,1.88-1.649,2.701  c-0.225,0.335-0.442,0.659-0.647,0.979c-0.223,0.35-0.119,0.813,0.229,1.036c0.125,0.079,0.265,0.117,0.402,0.117  c0.248,0,0.49-0.123,0.634-0.347c0.198-0.312,0.409-0.625,0.627-0.95c0.55-0.817,1.173-1.744,1.74-2.854  C42.342,41.644,42.195,41.191,41.826,41.003z"/><path d="M37.252,48.544c-0.358-0.214-0.817-0.098-1.029,0.258c-0.253,0.423-0.507,0.86-0.762,1.326  c-0.271,0.497-0.642,1.014-1.034,1.561c-0.182,0.253-0.368,0.514-0.557,0.786c-0.234,0.342-0.148,0.809,0.192,1.044  c0.131,0.089,0.278,0.132,0.425,0.132c0.239,0,0.474-0.113,0.619-0.324c0.182-0.265,0.363-0.519,0.54-0.764  c0.419-0.585,0.814-1.137,1.131-1.714c0.245-0.448,0.489-0.87,0.732-1.275C37.723,49.218,37.607,48.757,37.252,48.544z"/><path d="M33.124,56.367c-0.378-0.178-0.822-0.015-0.998,0.359c-0.253,0.538-0.513,1.105-0.786,1.703l-0.056,0.122  c-0.172,0.376-0.006,0.821,0.37,0.993c0.101,0.047,0.207,0.068,0.312,0.068c0.285,0,0.557-0.162,0.683-0.438l0.056-0.121  c0.271-0.593,0.527-1.154,0.779-1.688C33.66,56.991,33.499,56.544,33.124,56.367z"/></svg>