<?xml version="1.0" ?><!DOCTYPE svg  PUBLIC '-//W3C//DTD SVG 1.1//EN'  'http://www.w3.org/Graphics/SVG/1.1/DTD/svg11.dtd'><svg enable-background="new 0 0 64 64" height="64px" id="Layer_1" version="1.1" viewBox="0 0 64 64" width="64px" xml:space="preserve" xmlns="http://www.w3.org/2000/svg" xmlns:xlink="http://www.w3.org/1999/xlink"><path d="M39.942,13.312c-0.32-1.073-0.65-2.183-1.153-3.152c-0.476-0.917-0.668-1.829-0.838-2.633  c-0.316-1.499-0.675-3.198-3.148-3.199c-2.433,0-2.49,1.871-2.532,3.238c-0.029,0.951-0.062,2.03-0.586,3.041  c-0.351,0.677-0.958,1.324-1.6,2.01c-0.783,0.836-1.593,1.701-2.044,2.74c-0.9,2.076-0.857,4.286-0.832,5.606  c0.004,0.196,0.007,0.375,0.007,0.534c0,2.18,1.236,3.598,2.613,4.975c0.259,0.26,0.519,0.553,0.785,0.854  c1.099,1.24,2.344,2.645,4.189,2.645c2.188,0,4.231-1.584,5.561-2.914c1.464-1.464,1.464-3.515,1.464-5.56  c0-1.64-0.128-3.611-1.073-5.792C40.438,14.973,40.197,14.166,39.942,13.312z M39.304,25.996c-1.129,1.129-2.825,2.475-4.5,2.475  c-1.17,0-2.134-1.088-3.066-2.14c-0.287-0.324-0.567-0.64-0.847-0.919c-1.231-1.232-2.174-2.303-2.174-3.915  c0-0.167-0.003-0.356-0.008-0.563c-0.024-1.276-0.062-3.204,0.708-4.981c0.347-0.801,1.035-1.534,1.763-2.311  c0.684-0.729,1.391-1.484,1.837-2.345c0.681-1.313,0.722-2.628,0.754-3.685c0.05-1.634,0.137-1.784,1.033-1.784  c1.206,0,1.344,0.417,1.68,2.008c0.18,0.854,0.404,1.916,0.974,3.015c0.438,0.842,0.734,1.837,1.048,2.889  c0.256,0.859,0.521,1.747,0.873,2.562c0.95,2.189,0.95,4.22,0.95,5.257C40.328,23.39,40.328,24.971,39.304,25.996z"/><path d="M14.052,36.298c-0.401-1.102-0.816-2.24-1.341-3.252c-0.481-0.928-0.633-1.701-0.754-2.321  c-0.28-1.425-0.635-2.36-2.932-2.361c-2.42,0-2.832,0.911-3.302,2.396c-0.174,0.551-0.391,1.237-0.816,2.055  c-0.504,0.973-0.844,2.087-1.173,3.165c-0.259,0.852-0.505,1.655-0.821,2.386c-0.938,2.164-0.922,4.175-0.911,5.506l0.002,0.354  c0,1.896,0.126,3.873,1.64,5.386c1.53,1.53,3.443,2.373,5.385,2.373c1.989,0,3.245-1.3,4.353-2.446  c0.157-0.162,0.315-0.325,0.475-0.485c1.289-1.289,2.148-2.604,2.148-4.827c0-1.37-0.115-3.457-1.111-5.755  C14.594,37.785,14.319,37.029,14.052,36.298z M12.795,47.993c-0.166,0.166-0.33,0.335-0.493,0.504  c-1.031,1.066-1.921,1.988-3.274,1.988c-1.976,0-3.442-1.052-4.325-1.934c-1.004-1.004-1.2-2.346-1.2-4.325l-0.002-0.367  c-0.01-1.204-0.025-3.023,0.787-4.896c0.351-0.809,0.62-1.691,0.88-2.545c0.323-1.06,0.628-2.062,1.069-2.911  c0.484-0.934,0.723-1.688,0.915-2.294c0.387-1.221,0.427-1.349,1.875-1.349c1.231,0,1.244,0.065,1.457,1.15  c0.133,0.677,0.314,1.604,0.896,2.724c0.479,0.925,0.878,2.018,1.263,3.074c0.274,0.752,0.558,1.529,0.874,2.257  c0.885,2.042,0.987,3.922,0.987,5.158C14.503,45.957,13.903,46.885,12.795,47.993z"/><path d="M61.999,53.118l-0.002-0.487c0-1.33-0.652-3.103-1.704-5.529c-0.799-1.843-1.584-3.631-2.426-5.255  c-0.531-1.024-0.521-1.992-0.513-2.846c0.01-0.843,0.018-1.638-0.553-2.215c-0.402-0.406-0.991-0.597-1.855-0.597  c-2.44,0-2.62,1.456-2.779,2.74c-0.095,0.772-0.203,1.648-0.708,2.62c-0.499,0.963-0.741,2.071-0.976,3.143  c-0.196,0.899-0.382,1.749-0.704,2.49l-0.219,0.505c-0.89,2.043-1.592,3.656-1.592,4.943c0,0.299-0.007,0.602-0.015,0.905  c-0.04,1.688-0.086,3.602,1.2,4.888c1.098,1.097,2.639,1.248,4.142,1.248c0.279,0,0.562-0.006,0.843-0.011  c0.271-0.005,0.542-0.01,0.81-0.01l1.165,0.007c1.625,0,3.313-0.103,4.536-1.325C62.021,56.961,62.01,55.007,61.999,53.118z   M59.589,57.272c-0.74,0.74-1.835,0.886-3.476,0.886l-1.165-0.007c-0.276,0-0.557,0.005-0.837,0.01  c-0.272,0.005-0.545,0.011-0.815,0.011c-1.364,0-2.41-0.138-3.081-0.809c-0.832-0.832-0.798-2.27-0.761-3.791  c0.007-0.315,0.015-0.631,0.015-0.941c0-0.975,0.647-2.462,1.467-4.345l0.221-0.506c0.379-0.876,0.59-1.838,0.793-2.768  c0.223-1.021,0.434-1.985,0.842-2.771c0.628-1.211,0.765-2.318,0.865-3.128c0.156-1.262,0.176-1.424,1.292-1.424  c0.47,0,0.715,0.078,0.787,0.151c0.131,0.132,0.125,0.67,0.12,1.144c-0.011,0.927-0.023,2.196,0.68,3.553  c0.819,1.581,1.594,3.344,2.381,5.16c0.949,2.189,1.581,3.866,1.581,4.934l0.002,0.495C60.509,54.78,60.518,56.343,59.589,57.272z"/></svg>