<?xml version="1.0" ?><!DOCTYPE svg  PUBLIC '-//W3C//DTD SVG 1.1//EN'  'http://www.w3.org/Graphics/SVG/1.1/DTD/svg11.dtd'><svg enable-background="new 0 0 64 64" height="64px" id="Layer_1" version="1.1" viewBox="0 0 64 64" width="64px" xml:space="preserve" xmlns="http://www.w3.org/2000/svg" xmlns:xlink="http://www.w3.org/1999/xlink"><path d="M45.35,51.63c-4.069,0-6.135-0.643-8.133-1.264c-1.979-0.615-3.847-1.196-7.688-1.196c-3.958,0-5.937-0.013-7.916-0.025  c-1.977-0.012-3.953-0.024-7.906-0.024c-8.235,0-12.771-4.183-12.771-11.777c0-7.577,4.573-12.746,11.701-13.307  c2.201-7.106,9.264-11.666,18.161-11.666c10.321,0,17.403,3.588,19.527,9.867c6.835,1.607,12.737,8.41,12.737,14.792  C63.063,45.116,53.372,51.63,45.35,51.63z M30.798,13.87c-8.415,0-15.034,4.349-16.864,11.079c-0.085,0.314-0.364,0.538-0.689,0.552  C6.578,25.804,2.437,30.342,2.437,37.343c0,6.724,3.897,10.277,11.271,10.277c3.958,0,5.937,0.013,7.916,0.025  c1.976,0.012,3.953,0.024,7.906,0.024c4.069,0,6.135,0.643,8.133,1.264c1.979,0.615,3.847,1.196,7.688,1.196  c7.298,0,16.213-6.046,16.213-13.102c0-5.76-5.704-12.154-11.969-13.416c-0.271-0.055-0.491-0.255-0.57-0.521  C46.55,14.769,35.454,13.87,30.798,13.87z"/></svg>