<?xml version="1.0" ?><!DOCTYPE svg  PUBLIC '-//W3C//DTD SVG 1.1//EN'  'http://www.w3.org/Graphics/SVG/1.1/DTD/svg11.dtd'><svg enable-background="new 0 0 64 64" height="64px" id="Layer_1" version="1.1" viewBox="0 0 64 64" width="64px" xml:space="preserve" xmlns="http://www.w3.org/2000/svg" xmlns:xlink="http://www.w3.org/1999/xlink"><path d="M49.358,23.574l-0.578-0.368c-4.442-2.826-9.972-6.343-16.181-6.343c-6.523,0-12.982,3.228-17.251,5.936  C9.681,26.394,6.02,32.442,6.02,38.21c0,0.414,0.336,0.75,0.75,0.75s0.75-0.336,0.75-0.75c0-2.025,4.054-3.94,8.342-3.94  c4.172,0,7.833,1.842,7.833,3.94c0,0.414,0.336,0.75,0.75,0.75s0.75-0.336,0.75-0.75c0-1.886,2.669-3.291,6.467-3.49  c0.016,2.351,0.122,3.65,0.225,4.898c0.11,1.321,0.223,2.688,0.223,5.375c0,2.703-0.058,4.125-0.114,5.501  c-0.057,1.39-0.115,2.827-0.115,5.562c0,2.382-1.818,4.394-3.969,4.394c-2.084,0-3.716-1.93-3.716-4.394  c0-0.414-0.336-0.75-0.75-0.75s-0.75,0.336-0.75,0.75c0,3.305,2.292,5.894,5.216,5.894c3.016,0,5.469-2.644,5.469-5.894  c0-2.703,0.058-4.125,0.114-5.501c0.057-1.39,0.115-2.827,0.115-5.562c0-2.75-0.116-4.147-0.229-5.5  c-0.101-1.22-0.204-2.491-0.22-4.79c3.116,0.098,6.245,1.022,6.245,3.378c0,0.414,0.336,0.75,0.75,0.75s0.75-0.336,0.75-0.75  c0-1.949,3.969-4.423,8.429-4.423c4.274,0,7.146,2.287,7.146,4.423c0,0.414,0.336,0.75,0.75,0.75s0.75-0.336,0.75-0.75  C57.98,32.252,54.919,27.1,49.358,23.574z M49.335,32.158c-3.833,0-7.508,1.623-9.101,3.722c-1.174-1.712-3.845-2.687-7.637-2.687  c-3.897,0-6.852,1.083-8.159,2.838c-1.416-1.936-4.68-3.262-8.577-3.262c-2.934,0-6.01,0.801-7.927,2.209  c1.048-4.204,4.041-8.264,8.217-10.913c4.102-2.602,10.285-5.703,16.448-5.703c5.772,0,11.097,3.387,15.375,6.108l0.581,0.369  c3.854,2.444,6.399,5.72,7.42,9.455C54.389,32.99,52.002,32.158,49.335,32.158z"/><path d="M29.478,12.641c0.175,0.14,0.353,0.279,0.508,0.435c0.153,0.153,0.35,0.548,0.523,0.896c0.44,0.883,0.988,1.982,2.088,1.982  c1.201,0,3.103-0.767,3.914-1.579c0.644-0.644,0.97-1.96,0.97-3.913c0-0.752-0.531-1.588-1.205-2.646  c-0.38-0.598-0.772-1.215-1.069-1.828c-0.317-0.656-0.352-1.249-0.382-1.772c-0.054-0.915-0.127-2.167-2.228-2.167  c-2.108,0-2.316,1.129-2.499,2.125c-0.088,0.477-0.187,1.017-0.485,1.632c-0.643,1.326-1.387,3.243-1.464,4.458  c-0.018,0.063-0.027,0.13-0.027,0.198C28.124,11.559,28.875,12.159,29.478,12.641z M29.644,10.464c0-0.619,0.463-2.232,1.321-4.002  c0.386-0.798,0.516-1.501,0.61-2.015c0.165-0.896,0.165-0.896,1.023-0.896c0.519,0,0.641,0.09,0.642,0.09  c0.054,0.078,0.074,0.431,0.088,0.664c0.035,0.597,0.083,1.415,0.53,2.339c0.335,0.69,0.77,1.375,1.153,1.979  c0.41,0.644,0.971,1.526,0.971,1.842c0,1.713-0.286,2.608-0.53,2.853c-0.521,0.521-2.065,1.138-2.852,1.139  c-0.204-0.062-0.571-0.797-0.748-1.151c-0.247-0.495-0.479-0.962-0.805-1.288c-0.194-0.194-0.414-0.372-0.633-0.546  c-0.483-0.386-0.728-0.609-0.78-0.887C29.64,10.543,29.644,10.504,29.644,10.464z"/><path d="M12.464,16.014c0.173,0.147,0.34,0.29,0.481,0.43c0.153,0.152,0.33,0.393,0.518,0.648c0.563,0.765,1.265,1.716,2.351,1.716  c1.353,0,2.893-1.035,3.544-1.687c0.73-0.729,0.62-1.85,0.531-2.751c-0.027-0.276-0.055-0.547-0.055-0.794  c0-0.802-0.49-1.7-1.109-2.837c-0.244-0.447-0.504-0.924-0.745-1.422c-0.326-0.674-0.275-1.613-0.226-2.522  c0.059-1.096,0.115-2.131-0.521-2.802c-0.341-0.36-0.818-0.542-1.419-0.542c-2.176,0-2.745,1.786-3.247,3.362  c-0.18,0.566-0.367,1.152-0.622,1.68c-0.941,1.943-1.023,4.465-1.029,5.007c-0.002,0.026-0.004,0.052-0.004,0.078  C10.912,14.688,11.772,15.423,12.464,16.014z M12.416,13.576c0-0.971,0.185-2.998,0.879-4.431c0.302-0.625,0.505-1.262,0.702-1.878  c0.536-1.682,0.831-2.317,1.817-2.317c0.163,0,0.287,0.028,0.331,0.074c0.192,0.203,0.146,1.063,0.111,1.69  c-0.057,1.047-0.121,2.234,0.374,3.257c0.252,0.521,0.523,1.019,0.778,1.486c0.456,0.835,0.927,1.7,0.927,2.119  c0,0.293,0.03,0.615,0.063,0.941c0.058,0.586,0.129,1.315-0.099,1.543c-0.589,0.589-1.777,1.248-2.484,1.248  c-0.329,0-0.799-0.639-1.143-1.106c-0.222-0.302-0.432-0.586-0.665-0.819c-0.167-0.167-0.363-0.335-0.567-0.509  c-0.464-0.396-0.987-0.844-1.024-1.252C12.415,13.607,12.416,13.591,12.416,13.576z"/><path d="M47.49,17.264c0.354,0,0.699-0.079,1.033-0.156c0.307-0.07,0.597-0.137,0.86-0.137c1.171,0,1.636-0.124,2.511-0.999  c0.648-0.647,1.116-1.115,1.116-2.397c0-0.156,0.011-0.343,0.021-0.555c0.057-1.05,0.142-2.637-0.587-4.139  c-0.298-0.615-0.408-1.216-0.505-1.746c-0.199-1.082-0.447-2.429-2.557-2.429c-2.107,0-2.345,1.347-2.535,2.429  c-0.094,0.535-0.2,1.14-0.5,1.759c-0.798,1.647-1.076,3.35-1.128,4.3c-0.005,0.006-0.009,0.012-0.013,0.018  c-0.088,0.134-0.129,0.323-0.12,0.5c0.004,1.297,0.369,2.292,1.118,3.041C46.545,17.093,46.978,17.264,47.49,17.264z M46.603,13.984  c0.085-0.135,0.12-0.322,0.108-0.497c0.006-0.687,0.218-2.348,0.987-3.937c0.391-0.807,0.522-1.553,0.628-2.153  c0.189-1.077,0.209-1.189,1.058-1.189c0.86,0,0.886,0.137,1.081,1.2c0.108,0.592,0.244,1.33,0.631,2.128  c0.56,1.154,0.489,2.455,0.439,3.405c-0.014,0.242-0.024,0.457-0.024,0.635c0,0.66-0.09,0.75-0.734,1.394  c-0.483,0.483-0.535,0.502-1.393,0.502c-0.434,0-0.839,0.093-1.196,0.175c-0.264,0.061-0.514,0.118-0.697,0.118  c-0.152,0-0.19-0.038-0.224-0.071c-0.41-0.41-0.626-0.956-0.67-1.7C46.599,13.99,46.601,13.987,46.603,13.984z"/></svg>