<?xml version="1.0" ?><!DOCTYPE svg  PUBLIC '-//W3C//DTD SVG 1.1//EN'  'http://www.w3.org/Graphics/SVG/1.1/DTD/svg11.dtd'><svg enable-background="new 0 0 64 64" height="64px" id="Layer_1" version="1.1" viewBox="0 0 64 64" width="64px" xml:space="preserve" xmlns="http://www.w3.org/2000/svg" xmlns:xlink="http://www.w3.org/1999/xlink"><path d="M50.28,18.292c-2.262-6.989-9.152-14.253-17.776-14.253c-8.211,0-16.537,5.92-18.844,13.301  C6.598,17.962,0.731,24.422,0.731,31.72c0,7.721,7.58,11.177,15.092,11.177c0.414,0,0.75-0.336,0.75-0.75s-0.336-0.75-0.75-0.75  c-6.27,0-13.592-2.534-13.592-9.677c0-5.975,4.836-12.591,12.036-12.918c0.325-0.015,0.604-0.238,0.689-0.552  c1.906-7.009,9.777-12.711,17.547-12.711c7.78,0,14.484,6.919,16.472,13.608c0.079,0.266,0.299,0.467,0.57,0.522  c6.009,1.21,12.223,5.934,12.223,11.744c0,6.926-7.742,14.251-15.062,14.251c-0.414,0-0.75,0.336-0.75,0.75s0.336,0.75,0.75,0.75  c8.049,0,16.562-8.097,16.562-15.751C63.269,24.978,56.741,19.762,50.28,18.292z"/><path d="M28.051,34.29c-0.375-0.174-0.821-0.008-0.994,0.369c-2.725,5.953-3.79,9.126-4.819,12.194  c-1.017,3.031-2.069,6.166-4.761,12.046c-0.172,0.377-0.007,0.822,0.37,0.994c0.101,0.047,0.207,0.068,0.312,0.068  c0.284,0,0.556-0.162,0.683-0.438c2.725-5.953,3.79-9.126,4.819-12.194c1.017-3.031,2.069-6.166,4.761-12.046  C28.594,34.907,28.428,34.462,28.051,34.29z"/><path d="M38.526,36.324c0.173-0.377,0.007-0.822-0.369-0.994c-0.378-0.175-0.822-0.008-0.994,0.369  c-2.694,5.886-4.341,8.751-5.933,11.521c-1.609,2.8-3.273,5.696-5.997,11.644c-0.172,0.377-0.007,0.822,0.37,0.994  c0.101,0.047,0.207,0.068,0.312,0.068c0.284,0,0.556-0.162,0.683-0.438c2.694-5.886,4.34-8.751,5.933-11.521  C34.14,45.168,35.804,42.271,38.526,36.324z"/><path d="M45.975,35.322c-0.378-0.174-0.822-0.008-0.994,0.369c-2.688,5.871-4.452,8.674-6.159,11.384  c-1.732,2.752-3.523,5.599-6.253,11.561c-0.173,0.377-0.007,0.822,0.369,0.994c0.102,0.047,0.208,0.068,0.313,0.068  c0.284,0,0.556-0.162,0.682-0.438c2.688-5.872,4.453-8.676,6.159-11.386c1.732-2.752,3.524-5.598,6.253-11.559  C46.517,35.939,46.351,35.494,45.975,35.322z"/></svg>