<?xml version="1.0" ?><!DOCTYPE svg  PUBLIC '-//W3C//DTD SVG 1.1//EN'  'http://www.w3.org/Graphics/SVG/1.1/DTD/svg11.dtd'><svg enable-background="new 0 0 64 64" height="64px" id="Layer_1" version="1.1" viewBox="0 0 64 64" width="64px" xml:space="preserve" xmlns="http://www.w3.org/2000/svg" xmlns:xlink="http://www.w3.org/1999/xlink"><path d="M63.338,30.792c0-5.25-5.566-8.839-10.897-10.041c-2.018-6.162-7.396-10.118-13.817-10.118  c-6.897,0-11.672,5.835-13.473,11.79c-7.029,0.162-12.14,3.339-13.833,8.613C5.205,31.55,0.662,36.01,0.662,41.599  c0,5.853,4.74,9.94,11.526,9.94c6.205,0,9.359,0.46,12.409,0.905c3.104,0.453,6.313,0.922,12.625,0.922  c5.873,0,11.267-4.551,12.373-9.993C56.371,43.056,63.338,36.765,63.338,30.792z M37.223,51.866c-6.204,0-9.358-0.46-12.409-0.905  c-3.104-0.453-6.313-0.922-12.626-0.922c-5.997,0-10.026-3.392-10.026-8.44c0-5.015,4.105-8.841,9.76-9.099  c0.325-0.015,0.604-0.238,0.689-0.552c1.39-5.109,6.164-8.04,13.099-8.04c8.464,0,13.189,2.053,14.444,6.277  c0.079,0.266,0.299,0.467,0.57,0.522c4.93,0.994,7.59,6.225,7.59,10.642C48.314,46.854,43.027,51.866,37.223,51.866z M49.784,41.861  c0.009-0.171,0.03-0.341,0.03-0.513c0-4.884-2.926-10.657-8.359-12.014c-1.574-4.48-6.413-6.742-14.738-6.91  c1.729-5.264,5.944-10.291,11.906-10.291c5.891,0,10.802,3.719,12.514,9.474c0.079,0.266,0.299,0.466,0.57,0.521  c4.88,0.983,10.131,4.113,10.131,8.663C61.838,35.88,55.668,41.433,49.784,41.861z"/></svg>